<?xml version="1.0" standalone="no"?>
<!DOCTYPE svg PUBLIC "-//W3C//DTD SVG 20010904//EN"
 "http://www.w3.org/TR/2001/REC-SVG-20010904/DTD/svg10.dtd">
<svg version="1.0" xmlns="http://www.w3.org/2000/svg"
 width="720.000000pt" height="996.000000pt" viewBox="0 0 720.000000 996.000000"
 preserveAspectRatio="xMidYMid meet">
<metadata>
Created by potrace 1.15, written by Peter Selinger 2001-2017
</metadata>
<g transform="translate(0.000000,996.000000) scale(0.100000,-0.100000)"
fill="#000000" stroke="none">
<path d="M0 4980 l0 -4980 3600 0 3600 0 0 4980 0 4980 -3600 0 -3600 0 0
-4980z m5648 4637 l272 -273 0 -134 0 -135 -75 -78 -75 -78 0 -267 0 -267 198
-197 197 -197 95 -3 95 -3 3 -189 2 -190 -47 -48 -47 -48 -267 0 -266 0 -484
498 c-266 273 -517 531 -557 573 l-72 76 0 623 0 623 378 -7 377 -6 273 -273z
m-4998 -212 l284 -285 180 0 181 0 77 -77 78 -78 0 -180 0 -181 335 -336 c184
-185 335 -339 335 -342 0 -3 -26 -32 -58 -65 l-58 -61 -289 0 -290 0 -658 651
-657 651 0 236 0 236 57 58 57 58 71 0 71 0 284 -285z m1901 178 c29 -32 164
-173 300 -313 135 -140 271 -282 302 -315 l56 -60 1 -362 0 -361 28 -25 c15
-13 60 -58 101 -99 l73 -76 -45 -61 -45 -62 -463 1 -464 0 -62 63 -62 62 -2
136 -1 135 66 67 66 67 0 232 0 232 -65 66 -66 66 0 224 0 224 108 108 c59 59
110 108 114 108 3 0 30 -26 60 -57z m-1831 -1188 l505 -505 -45 -45 -44 -45
-455 0 -455 0 -58 57 -58 57 0 449 0 450 42 43 c24 24 47 44 53 44 5 0 237
-227 515 -505z m3197 133 l363 -363 0 -80 0 -80 -82 -82 -83 -83 -115 0 -115
0 -105 105 -105 105 -100 0 -101 0 -107 107 -107 107 0 313 0 313 147 0 148 0
362 -362z m2901 -311 l252 -252 0 -175 0 -174 -52 -53 -52 -53 -210 0 -210 0
-53 52 -53 52 0 243 0 243 -111 0 -111 0 -176 181 c-98 100 -178 184 -180 188
-1 3 157 5 350 3 l353 -3 253 -252z m-2093 130 c11 -6 181 -173 378 -372 l357
-361 0 -52 0 -52 -352 0 -351 0 -69 52 -68 52 0 379 0 379 43 -7 c23 -3 51
-11 62 -18z m-3992 -890 l47 -44 0 -174 0 -174 190 -190 190 -190 0 -141 0
-141 -59 -56 -60 -57 -278 0 -278 0 -30 34 c-16 18 -101 113 -187 209 l-158
175 0 353 0 353 42 43 42 43 246 0 245 0 48 -43z m3359 -1289 l-3 -163 254
-253 254 -253 719 0 719 1 117 -117 118 -118 0 -290 0 -290 -107 -107 -108
-108 -1555 0 -1555 0 -103 103 -102 102 0 410 0 410 110 110 110 110 0 446 0
445 -110 114 -110 113 0 241 0 241 92 92 93 93 585 -585 585 -585 -3 -162z
m-2595 1040 l63 -62 0 -181 0 -180 67 -62 68 -62 150 -1 151 0 64 -65 64 -64
-3 -58 c-2 -56 -4 -60 -64 -120 l-61 -63 -320 0 -320 0 -63 62 -63 62 0 161 0
160 -184 184 c-136 136 -183 188 -181 204 1 12 3 51 4 87 l1 65 282 -2 281 -2
64 -63z m5453 -1003 l120 -120 0 -700 0 -700 -107 -107 -106 -108 -141 0 -141
0 -102 108 -102 107 -1 350 0 350 -127 127 -128 128 -580 0 -580 0 -272 272
-273 273 0 74 0 74 1210 -5 1211 -4 119 -119z m-6008 -723 l59 -57 -66 -70
c-37 -39 -95 -98 -128 -133 l-62 -62 277 -278 276 -277 -25 -57 -26 -58 -301
0 -301 0 -267 272 -267 273 -1 204 0 204 43 47 42 48 343 1 344 1 60 -58z
m353 -356 l200 -206 465 0 464 0 68 -67 68 -67 0 -96 -1 -95 -63 -67 -64 -68
-454 0 -455 0 -346 348 -346 347 90 91 c86 87 91 90 132 88 41 -2 47 -7 242
-208z m2643 -944 l82 -77 0 -80 0 -80 620 -620 620 -620 -2 -440 -3 -439 -109
-83 -109 -83 -193 0 -194 0 -687 685 -688 684 -232 1 -233 0 0 537 0 538 77
77 78 78 445 0 445 -1 83 -77z m-2526 -374 l348 -353 0 -231 0 -231 -54 -52
-55 -51 -223 0 -223 0 -547 547 -548 548 0 59 c0 51 4 64 27 88 l27 28 450 0
451 1 347 -353z m-775 -430 l353 -353 0 -67 0 -68 -380 0 -379 0 -61 79 -60
80 0 340 0 341 87 0 88 0 352 -352z m6433 -845 l0 -988 -405 405 -405 405 0
410 0 409 172 173 173 173 233 0 232 0 0 -987z m-4557 876 l47 -41 0 -193 0
-194 -47 -45 -48 -46 -275 0 -275 0 -47 41 -48 41 0 239 0 239 323 0 322 0 48
-41z m1224 -1011 l503 -503 0 -117 0 -118 -618 0 -617 0 -98 91 -97 91 0 529
0 529 212 0 213 0 502 -502z m-3269 59 l133 -133 0 -244 0 -244 -246 -246
-245 -245 0 623 0 622 113 0 112 0 133 -133z m1181 -1 l133 -133 -1 -437 -1
-436 247 0 248 0 142 -142 143 -143 0 -400 0 -400 -142 -142 -143 -143 -485 1
-485 0 -115 140 c-63 77 -116 145 -118 150 -2 5 -139 9 -330 9 l-327 0 -152
152 -153 153 0 255 0 255 295 295 295 295 0 265 0 265 137 137 138 138 270 0
270 0 134 -134z m5421 -1509 l0 -437 -111 -115 -112 -115 -126 0 -126 0 -170
200 -170 199 -298 1 -297 0 -308 -300 -307 -300 -317 0 -318 0 0 218 0 217
168 167 167 167 128 2 129 1 361 365 362 364 -4 121 -3 120 228 229 229 229
447 -447 448 -448 0 -438z"/>
<path d="M4740 9790 c-11 -11 -20 -27 -20 -35 0 -21 36 -55 59 -55 27 0 51 26
51 55 0 51 -54 71 -90 35z"/>
<path d="M6150 7671 c-16 -32 -12 -59 14 -76 48 -32 104 22 76 74 -15 28 -75
29 -90 2z"/>
<path d="M248 9612 c-35 -7 -34 -76 1 -87 39 -12 70 22 56 64 -6 20 -29 29
-57 23z"/>
<path d="M1256 9014 c-30 -30 -13 -74 29 -74 42 0 59 44 29 74 -8 9 -22 16
-29 16 -7 0 -21 -7 -29 -16z"/>
<path d="M1922 7958 c-26 -26 -7 -78 28 -78 9 0 25 9 35 20 37 41 -24 97 -63
58z"/>
<path d="M2418 9469 c-22 -12 -23 -42 -2 -60 31 -26 70 25 44 56 -14 17 -19
18 -42 4z"/>
<path d="M2412 7988 c-30 -30 3 -77 40 -57 22 12 24 55 2 63 -22 8 -28 8 -42
-6z"/>
<path d="M3252 7988 c-19 -19 -14 -48 11 -57 29 -11 49 5 45 38 -3 29 -35 40
-56 19z"/>
<path d="M246 7984 c-21 -21 -20 -47 3 -68 28 -25 70 -4 71 36 0 20 -26 48
-45 48 -7 0 -21 -7 -29 -16z"/>
<path d="M3318 8839 c-10 -5 -18 -16 -18 -24 0 -15 27 -45 40 -45 11 0 40 29
40 40 0 10 -29 40 -38 40 -4 0 -15 -5 -24 -11z"/>
<path d="M4002 7988 c-32 -32 7 -80 43 -54 13 9 16 20 11 39 -7 29 -33 36 -54
15z"/>
<path d="M6909 7687 c-16 -9 -25 -22 -27 -44 -6 -62 68 -79 98 -23 22 41 -28
88 -71 67z"/>
<path d="M4736 7668 c-21 -30 -20 -44 4 -68 36 -36 90 -16 90 35 0 52 -65 74
-94 33z"/>
<path d="M670 7425 c-17 -21 -8 -50 17 -53 27 -4 50 31 30 45 -26 21 -35 22
-47 8z"/>
<path d="M184 7415 c-9 -23 3 -45 24 -45 25 0 44 23 36 44 -8 20 -53 21 -60 1z"/>
<path d="M1062 6468 c-17 -17 -15 -36 7 -47 24 -13 55 8 49 35 -4 22 -38 30
-56 12z"/>
<path d="M2912 7214 c-32 -22 -30 -76 4 -103 15 -12 32 -21 39 -21 7 0 24 9
39 21 69 55 -9 154 -82 103z"/>
<path d="M5944 5352 c-41 -27 -38 -95 5 -115 50 -25 101 6 101 60 0 45 -68 81
-106 55z"/>
<path d="M2907 4722 c-22 -25 -21 -75 1 -95 25 -22 75 -21 95 1 22 25 21 75
-1 95 -25 22 -75 21 -95 -1z"/>
<path d="M5939 4730 c-34 -20 -31 -88 5 -112 24 -16 75 -8 90 14 45 64 -27
138 -95 98z"/>
<path d="M1406 7207 c-24 -17 -17 -51 11 -55 30 -4 49 31 27 52 -19 19 -16 19
-38 3z"/>
<path d="M905 7200 c-11 -17 5 -50 24 -50 24 0 43 23 35 44 -7 18 -49 22 -59
6z"/>
<path d="M2012 6508 c-18 -18 -15 -36 7 -48 15 -7 23 -6 35 6 9 8 16 19 16 23
0 11 -23 31 -35 31 -6 0 -16 -5 -23 -12z"/>
<path d="M4672 6230 c-39 -37 -24 -94 31 -113 45 -16 101 49 78 92 -24 43 -74
53 -109 21z"/>
<path d="M6677 4722 c-22 -25 -21 -75 1 -95 42 -39 115 -8 115 48 0 57 -79 88
-116 47z"/>
<path d="M201 5447 c-17 -21 -3 -49 23 -45 15 2 21 10 21 28 0 28 -26 38 -44
17z"/>
<path d="M840 5445 c-17 -20 -5 -45 20 -45 11 0 23 7 26 15 6 15 -11 45 -26
45 -4 0 -13 -7 -20 -15z"/>
<path d="M204 5086 c-24 -18 -11 -48 18 -44 14 2 24 11 26 24 4 26 -20 37 -44
20z"/>
<path d="M671 4576 c-9 -11 -8 -18 4 -30 20 -20 20 -20 39 -1 8 9 13 22 10 30
-8 19 -38 19 -53 1z"/>
<path d="M1173 4574 c-3 -8 2 -23 11 -32 15 -15 17 -15 32 0 21 21 11 48 -16
48 -11 0 -23 -7 -27 -16z"/>
<path d="M902 5181 c-21 -13 -10 -46 16 -49 27 -4 40 22 22 43 -14 17 -20 18
-38 6z"/>
<path d="M2474 4715 c-8 -21 2 -45 19 -45 8 0 20 7 27 15 10 12 10 18 0 30 -7
8 -19 15 -27 15 -7 0 -16 -7 -19 -15z"/>
<path d="M1527 4563 c-13 -12 -7 -41 10 -47 21 -9 46 16 37 37 -6 17 -35 23
-47 10z"/>
<path d="M2946 4144 c-19 -18 -21 -55 -4 -72 7 -7 24 -12 38 -12 49 0 68 51
32 83 -23 21 -46 22 -66 1z"/>
<path d="M3795 4140 c-21 -23 -14 -64 13 -79 28 -15 66 9 70 44 6 50 -48 73
-83 35z"/>
<path d="M5106 2678 c-21 -29 -20 -41 2 -61 27 -24 59 -21 78 8 15 23 15 27 0
50 -21 32 -59 33 -80 3z"/>
<path d="M4667 1802 c-22 -24 -21 -45 1 -65 27 -24 59 -21 78 8 15 23 15 27 0
50 -20 30 -56 33 -79 7z"/>
<path d="M183 4064 c-3 -8 2 -23 11 -32 15 -15 17 -15 32 0 21 21 11 48 -16
48 -11 0 -23 -7 -27 -16z"/>
<path d="M1614 3035 c-8 -21 2 -45 19 -45 21 0 38 25 31 44 -8 20 -43 21 -50
1z"/>
<path d="M6876 3418 c-29 -40 -12 -76 41 -92 28 -9 63 24 63 57 0 53 -75 77
-104 35z"/>
<path d="M2441 3347 c-17 -21 -3 -49 23 -45 15 2 21 10 21 28 0 28 -26 38 -44
17z"/>
<path d="M2436 3034 c-9 -22 17 -49 39 -40 10 3 15 15 13 28 -4 29 -42 37 -52
12z"/>
<path d="M2876 2834 c-33 -32 -8 -84 39 -84 15 0 31 10 41 25 15 23 15 27 0
50 -19 29 -56 33 -80 9z"/>
<path d="M4086 1804 c-32 -31 -11 -84 32 -84 35 0 52 16 52 50 0 14 -5 31 -12
38 -17 17 -54 15 -72 -4z"/>
<path d="M188 2484 c-16 -34 0 -58 40 -62 26 -3 34 2 43 21 16 36 -3 67 -42
67 -22 0 -32 -6 -41 -26z"/>
<path d="M190 1704 c-23 -27 -1 -68 38 -72 26 -3 34 1 43 21 16 35 -3 67 -40
67 -16 0 -34 -7 -41 -16z"/>
<path d="M1199 2521 c-20 -16 -22 -23 -14 -47 12 -34 54 -44 79 -19 21 22 20
41 -4 65 -25 25 -32 25 -61 1z"/>
<path d="M2202 1358 c-7 -7 -12 -21 -12 -33 0 -12 5 -26 12 -33 7 -7 21 -12
33 -12 12 0 26 5 33 12 7 7 12 21 12 33 0 12 -5 26 -12 33 -7 7 -21 12 -33 12
-12 0 -26 -5 -33 -12z"/>
<path d="M306 654 c-21 -21 -20 -47 2 -67 24 -22 45 -21 65 1 22 24 21 45 -1
65 -23 21 -46 22 -66 1z"/>
<path d="M2206 244 c-19 -18 -21 -55 -4 -72 15 -15 51 -15 66 0 26 26 3 88
-33 88 -7 0 -21 -7 -29 -16z"/>
<path d="M6127 2132 c-35 -39 -7 -102 44 -102 26 0 61 49 53 74 -13 46 -67 61
-97 28z"/>
<path d="M6682 464 c-44 -31 -16 -104 40 -104 24 0 58 35 58 60 0 25 -34 60
-58 60 -10 0 -28 -7 -40 -16z"/>
<path d="M4475 246 c-36 -54 26 -117 80 -82 29 19 34 66 9 90 -24 25 -71 20
-89 -8z"/>
</g>
</svg>
