<svg xmlns="http://www.w3.org/2000/svg" viewBox="0 0 451 307" preserveAspectRatio="xMidYMid meet"><path d="m22 0 4 1 115 115 1 3v30l5 7 5 4 5 5 13 13 7 8 7 6 5 5 4 2 143 1 22 22 1 6v53l-7 8-15 15H25L4 283v-82l9-10 12-12V89l-9-10-6-5-6-7V18Zm2 28-3 3 1 7 1 1h7l2-2v-6l-3-3Zm302 187-3 4 1 6 6 2 5-5-1-5-2-2ZM23 277l-2 3 1 7 5 2 4-2 1-2v-6l-2-2Zm303 0-3 5 2 5 5 2 5-5-1-6-1-1Z"/><path d="M173 116h102l140 1 23 23v143l-17 17-4 4h-28l-7-6-7-8-8-8-1-70-7-8-16-16-116-1-8-7-47-47v-16Zm28 10-4 4 1 6 1 1h7l2-2v-7l-3-2Zm200 151-3 2v7l6 3 5-3 1-4-3-5Z"/></svg>