<svg xmlns="http://www.w3.org/2000/svg" viewBox="0 0 250 244" preserveAspectRatio="xMidYMid meet"><path d="M5 1h22l52 1 43 43 5 5 6 7v29l-13 13-1 3v50l7 8 31 31 19 1 1 1v40l-9 9h-54l-5-5-17-17-7-8-32-32-5-5-9-10-24-24-7-8-6-6V4Zm12 11-2 1v6l2 2 5-1 1-1v-5l-3-2Zm140 212-1 6 2 2h5l2-3-1-5Z"/><path d="m133 143 65 1 50 50 1 2v34l-7 8-4 4h-43l-11-11v-48h-21l-10-9-5-6-5-4-7-8-9-9 1-3Zm99 81-2 2 1 5 1 1h5l2-5-2-3Z"/><path d="M3 155h9l6 4 8 9 5 5 53 53 3 4v11l-1 1H16l-10-8-4-3v-75Zm14 69-2 1-1 5 3 3 5-1 1-1v-5l-3-2Z"/></svg>